<?xml version="1.0" encoding="UTF-8" standalone="no"?>
<!-- Created with Inkscape (http://www.inkscape.org/) -->

<svg
   width="38.596161mm"
   height="38.596123mm"
   viewBox="0 0 38.596161 38.596123"
   version="1.1"
   id="svg577"
   xmlns="http://www.w3.org/2000/svg"
   xmlns:svg="http://www.w3.org/2000/svg">
  <defs
     id="defs574" />
  <g
     id="layer1"
     transform="translate(-39.605149,-56.282584)">
    <path
       d="m 55.799309,74.923161 h -2.802215 v -1.24543 h 0.311357 v -12.12363 h 1.245118 v 6.84986 h 0.622715 v -6.84986 h 0.311669 v 12.12363 h 0.311356 z m 8.396685,1.88745 h -2.802216 v -1.24543 h 0.321321 v -13.37591 h 1.245119 v 7.77086 h 0.622715 v -7.77086 h 0.301707 v 13.37591 h 0.311356 z m -9.642422,-7.16122 h 0.622715 v -0.62271 h -0.622715 z m 8.406958,1.55617 h 0.622715 v -0.62272 H 62.96053 Z m -18.67117,12.76876 v -0.002 h -0.944348 v -0.62272 h 0.944348 v -4.04577 h 2.791942 v 1.86876 h 0.622715 v -1.86876 h 6.538505 v -0.62272 h -9.160134 l 7.914703,-3.11295 h 2.802216 l 4.249406,1.72897 -7.985693,3.14097 v 3.5364 z m 8.396687,-2.80284 h 3.424931 v 1.86285 h 0.622715 v -1.86285 h 10.897198 v -0.62271 h -9.428212 l 4.013395,-1.57796 -0.226668,-0.57881 -5.485495,2.15708 h -3.024836 l 7.914703,-3.11295 h 2.802216 l 7.651297,3.11358 h -2.347944 v 0.62271 h 3.11295 l -0.0061,2.95184 h 3.071966 c 0.202042,-0.3973 0.390777,-0.80333 0.566203,-1.21811 0.985931,-2.33093 1.478897,-4.77277 1.478897,-7.32551 0,-2.55272 -0.492966,-4.99456 -1.478897,-7.32551 -0.952293,-2.25157 -2.296752,-4.24565 -4.033369,-5.98223 -1.736619,-1.7366 -3.730688,-3.08106 -5.98221,-4.03339 -2.330998,-0.98591 -4.772835,-1.47887 -7.325514,-1.47887 -2.552745,0 -4.994592,0.49296 -7.325542,1.47887 -2.251562,0.95233 -4.245642,2.29679 -5.98224,4.03339 -1.736592,1.73659 -3.081052,3.73067 -4.033382,5.98223 -0.985909,2.33095 -1.478865,4.77279 -1.478865,7.32551 0,2.55274 0.492956,4.99458 1.478865,7.32551 0.175432,0.41478 0.364172,0.82081 0.566216,1.21811 h 10.557756 z m 4.047337,2.48899 h -0.622716 v 0.46378 h 0.622716 z m -9.641806,-1.24262 h 0.622716 v -0.62272 h -0.622716 z m -1.496126,6.47051 c 1.736598,1.73662 3.730678,3.08108 5.98224,4.03337 2.33095,0.98593 4.7728,1.4789 7.325542,1.4789 2.552679,0 4.994516,-0.49297 7.325514,-1.4789 2.251519,-0.95229 4.245591,-2.29675 5.98221,-4.03337 1.28029,-1.28024 2.347434,-2.70044 3.201435,-4.26061 H 42.394026 c 0.854014,1.56017 1.921155,2.98037 3.201426,4.26061 z m -5.990304,-13.30772 c 0,-10.65802 8.640045,-19.29806 19.298078,-19.29806 10.658033,0 19.298079,8.64004 19.298079,19.29806 0,10.65803 -8.640046,19.29806 -19.298079,19.29806 -10.658033,0 -19.298078,-8.64003 -19.298078,-19.29806 z"
       data-paper-data="{&quot;isPathIcon&quot;:true}"
       id="element-id-27345"
       style="mix-blend-mode:normal;fill:#1a1a1a;stroke-width:0.264583" />
    <g
       data-paper-data="{&quot;isSecondaryText&quot;:true}"
       fill-rule="nonzero"
       id="element-id-85878"
       transform="matrix(0.06370242,0,0,0.05087819,34.805635,78.047807)"
       style="mix-blend-mode:normal;fill:#999999;fill-opacity:1">
      <path
         d="m 295.10431,289.76592 c 3.06856,0 4.53356,-1.51541 4.53356,-4.90905 v -3.0308 c 0,-3.39363 -1.465,-4.90904 -4.53356,-4.90904 -3.06858,0 -4.53356,1.60077 -4.53356,4.90904 v 3.0308 c 0,3.39364 1.46498,4.90905 4.53356,4.90905 z m 0,-2.60393 c -1.42542,0 -1.80156,-0.89645 -1.80156,-2.45453 v -2.73199 c 0,-1.55809 0.37614,-2.45453 1.80156,-2.45453 1.4254,0 1.80154,0.89644 1.80154,2.45453 v 2.73199 c 0,1.55808 -0.37614,2.45453 -1.80154,2.45453 z"
         data-paper-data="{&quot;glyphName&quot;:&quot;o&quot;,&quot;glyphIndex&quot;:0,&quot;firstGlyphOfWord&quot;:true,&quot;word&quot;:1}"
         id="element-id-79182"
         style="fill:#999999;fill-opacity:1;stroke-width:1.62117" />
      <path
         d="m 302.49266,289.63912 h 1.73711 v -4.66611 c 0,-0.96365 0.53255,-1.29332 1.20457,-1.29332 0.72274,0 1.12849,0.39307 1.12849,1.35672 v 4.60271 h 1.72443 v -4.61539 c 0,-2.28234 -1.20457,-2.929 -2.43449,-2.91632 -0.63398,0 -1.29332,0.25359 -1.76247,0.8115 l -0.0888,-0.76078 h -1.50888 z"
         data-paper-data="{&quot;glyphName&quot;:&quot;n&quot;,&quot;glyphIndex&quot;:1,&quot;word&quot;:1}"
         id="element-id-30184"
         style="fill:#999999;fill-opacity:1" />
      <path
         d="m 316.5713,287.34411 c 0,0.51987 -0.34235,0.8115 -1.16653,0.8115 -0.71006,0 -1.17921,-0.22823 -1.17921,-1.4328 v -0.19019 h 4.05749 v -1.48352 c 0,-2.01606 -0.93829,-2.91632 -2.90364,-2.91632 -1.96535,0 -2.90364,1.03973 -2.90364,2.91632 v 1.69907 c 0,2.01606 0.93829,2.91632 2.90364,2.91632 1.96535,0 2.90364,-0.7481 2.90364,-2.32038 z m -1.14117,-3.70246 c 0.98901,0 1.16653,0.51987 1.16653,1.45816 h -2.3711 c 0,-0.90026 0.17752,-1.45816 1.20457,-1.45816 z"
         data-paper-data="{&quot;glyphName&quot;:&quot;e&quot;,&quot;glyphIndex&quot;:2,&quot;lastGlyphOfWord&quot;:true,&quot;word&quot;:1}"
         id="element-id-74187"
         style="fill:#999999;fill-opacity:1" />
      <path
         d="m 330.99652,289.67716 c 1.88927,0 2.90364,-0.86222 2.90364,-2.94168 v -2.00339 c 0,-1.61032 -0.78614,-2.63737 -2.40913,-2.63737 -0.59594,0 -1.25529,0.19019 -1.63568,0.65934 v -2.87828 h -1.73711 v 6.87237 c 0,2.06678 0.97633,2.929 2.87828,2.929 z m 0.038,-5.99747 c 0.72274,0.0127 1.12849,0.34235 1.12849,1.25529 v 1.76247 c 0,1.07777 -0.48183,1.4328 -1.16653,1.4328 -0.88758,0 -1.14117,-0.51987 -1.14117,-1.42012 v -1.78783 c 0,-0.83686 0.43111,-1.24261 1.17921,-1.24261 z"
         data-paper-data="{&quot;glyphName&quot;:&quot;b&quot;,&quot;glyphIndex&quot;:3,&quot;firstGlyphOfWord&quot;:true,&quot;word&quot;:2}"
         id="element-id-33204"
         style="fill:#999999;fill-opacity:1" />
      <path
         d="m 341.75309,282.12009 c -0.92561,-0.15216 -1.77515,0.30431 -2.07946,0.82418 l -0.0761,-0.78614 h -1.59764 v 7.49368 h 1.73711 v -4.28572 c 0,-1.11581 0.88758,-1.5596 2.01606,-1.40744 z"
         data-paper-data="{&quot;glyphName&quot;:&quot;r&quot;,&quot;glyphIndex&quot;:4,&quot;word&quot;:2}"
         id="element-id-29694"
         style="fill:#999999;fill-opacity:1" />
      <path
         d="m 349.32707,287.34411 c 0,0.51987 -0.34235,0.8115 -1.16653,0.8115 -0.71006,0 -1.17921,-0.22823 -1.17921,-1.4328 v -0.19019 h 4.05749 v -1.48352 c 0,-2.01606 -0.93829,-2.91632 -2.90364,-2.91632 -1.96535,0 -2.90364,1.03973 -2.90364,2.91632 v 1.69907 c 0,2.01606 0.93829,2.91632 2.90364,2.91632 1.96535,0 2.90364,-0.7481 2.90364,-2.32038 z m -1.14116,-3.70246 c 0.98901,0 1.16653,0.51987 1.16653,1.45816 h -2.3711 c 0,-0.90026 0.17752,-1.45816 1.20457,-1.45816 z"
         data-paper-data="{&quot;glyphName&quot;:&quot;e&quot;,&quot;glyphIndex&quot;:5,&quot;word&quot;:2}"
         id="element-id-37957"
         style="fill:#999999;fill-opacity:1" />
      <path
         d="m 358.63817,282.15813 c -0.26627,0.93829 -0.53255,1.73711 -0.6847,2.3711 -0.36771,1.57228 -0.39307,2.33306 -0.49451,3.01776 -0.1268,-0.95097 -0.29163,-2.13018 -0.54523,-3.14455 l -0.65934,-2.2443 h -1.80051 l 2.19358,7.49368 h 1.64835 l 0.44379,-1.61032 0.51987,-2.66273 0.51987,2.63737 0.44379,1.63568 h 1.66103 l 2.16822,-7.49368 h -1.78783 l -0.64666,2.2443 c -0.25359,1.01437 -0.43111,2.19358 -0.5579,3.14455 -0.13948,-0.98901 -0.31699,-1.97803 -0.5579,-2.9924 l -0.57058,-2.39645 z"
         data-paper-data="{&quot;glyphName&quot;:&quot;w&quot;,&quot;glyphIndex&quot;:6,&quot;word&quot;:2}"
         id="element-id-78844"
         style="fill:#999999;fill-opacity:1" />
      <path
         d="m 371.38544,287.34411 c 0,0.51987 -0.34235,0.8115 -1.16653,0.8115 -0.71006,0 -1.17921,-0.22823 -1.17921,-1.4328 v -0.19019 h 4.05749 v -1.48352 c 0,-2.01606 -0.93829,-2.91632 -2.90364,-2.91632 -1.96535,0 -2.90364,1.03973 -2.90364,2.91632 v 1.69907 c 0,2.01606 0.93829,2.91632 2.90364,2.91632 1.96535,0 2.90364,-0.7481 2.90364,-2.32038 z m -1.14116,-3.70246 c 0.98901,0 1.16653,0.51987 1.16653,1.45816 h -2.3711 c 0,-0.90026 0.17752,-1.45816 1.20457,-1.45816 z"
         data-paper-data="{&quot;glyphName&quot;:&quot;e&quot;,&quot;glyphIndex&quot;:7,&quot;word&quot;:2}"
         id="element-id-99225"
         style="fill:#999999;fill-opacity:1" />
      <path
         d="m 380.92477,282.12009 c -0.92561,-0.15216 -1.77515,0.30431 -2.07946,0.82418 l -0.0761,-0.78614 h -1.59764 v 7.49368 h 1.73711 v -4.28572 c 0,-1.11581 0.88758,-1.5596 2.01606,-1.40744 z"
         data-paper-data="{&quot;glyphName&quot;:&quot;r&quot;,&quot;glyphIndex&quot;:8,&quot;word&quot;:2}"
         id="element-id-19058"
         style="fill:#999999;fill-opacity:1" />
      <path
         d="m 388.62555,282.15813 -0.65934,2.2443 c -0.25359,1.02705 -0.44379,2.1809 -0.58326,3.14455 -0.1268,-0.95097 -0.32967,-2.13018 -0.58326,-3.14455 l -0.67202,-2.2443 h -1.81319 l 2.2443,7.43028 -0.29163,1.05241 c -0.17752,0.65934 -0.64666,0.46915 -1.09045,0.36771 l -0.26627,1.28064 c 1.4328,0.57058 2.43449,0.39307 2.91632,-1.29332 l 0.40575,-1.44548 h -0.0127 l 2.21894,-7.39224 z"
         data-paper-data="{&quot;glyphName&quot;:&quot;y&quot;,&quot;glyphIndex&quot;:9,&quot;lastGlyphOfWord&quot;:true,&quot;word&quot;:2}"
         id="element-id-36452"
         style="fill:#999999;fill-opacity:1" />
      <path
         d="m 401.69404,282.32296 h -1.73711 v 7.32884 h 1.73711 z m -1.83855,-1.67371 c 0,1.28064 1.96535,1.26797 1.96535,0 0,-1.28064 -1.96535,-1.29332 -1.96535,0 z"
         data-paper-data="{&quot;glyphName&quot;:&quot;i&quot;,&quot;glyphIndex&quot;:10,&quot;firstGlyphOfWord&quot;:true,&quot;word&quot;:3}"
         id="element-id-91554"
         style="fill:#999999;fill-opacity:1" />
      <path
         d="m 406.25026,289.63912 h 1.73711 v -4.66611 c 0,-0.96365 0.53255,-1.29332 1.20457,-1.29332 0.72274,0 1.12849,0.39307 1.12849,1.35672 v 4.60271 h 1.72443 v -4.61539 c 0,-2.28234 -1.20457,-2.929 -2.43449,-2.91632 -0.63398,0 -1.29332,0.25359 -1.76247,0.8115 l -0.0888,-0.76078 h -1.50888 z"
         data-paper-data="{&quot;glyphName&quot;:&quot;n&quot;,&quot;glyphIndex&quot;:11,&quot;word&quot;:3}"
         id="element-id-74411"
         style="fill:#999999;fill-opacity:1" />
      <path
         d="m 422.02798,289.63912 v -9.76333 h -1.73711 v 2.85292 c -0.29163,-0.49451 -0.92561,-0.65934 -1.53424,-0.65934 -1.66103,0 -2.51057,1.02705 -2.51057,2.78952 v 1.92731 c 0,2.07946 0.98901,2.89096 2.45985,2.89096 0.84954,0 1.47084,-0.32967 1.76247,-0.86222 l 0.1268,0.82418 z m -2.8656,-5.95943 c 0.69738,0 1.12849,0.34235 1.12849,1.24261 v 1.71175 c 0,0.86222 -0.31699,1.4962 -1.17921,1.4962 -0.6847,0 -1.12849,-0.35503 -1.12849,-1.4328 v -1.76247 c 0,-0.90026 0.43111,-1.25529 1.17921,-1.25529 z"
         data-paper-data="{&quot;glyphName&quot;:&quot;d&quot;,&quot;glyphIndex&quot;:12,&quot;word&quot;:3}"
         id="element-id-54866"
         style="fill:#999999;fill-opacity:1" />
      <path
         d="m 432.31541,282.14545 h -1.77515 v 4.66611 c 0,0.96365 -0.53255,1.29332 -1.20457,1.29332 -0.72274,0 -1.12849,-0.39307 -1.12849,-1.35672 v -4.60271 h -1.72443 v 4.61539 c 0,2.28234 1.20457,2.929 2.43449,2.91632 0.63398,0 1.29332,-0.25359 1.76247,-0.8115 l 0.0888,0.76078 h 1.54692 z"
         data-paper-data="{&quot;glyphName&quot;:&quot;u&quot;,&quot;glyphIndex&quot;:13,&quot;word&quot;:3}"
         id="element-id-88358"
         style="fill:#999999;fill-opacity:1" />
      <path
         d="m 441.96885,284.50386 c 0,-1.34404 -0.8749,-2.38377 -2.71345,-2.38377 -1.623,0 -2.82756,0.7481 -2.82756,2.43449 0,1.47084 1.05241,1.93999 2.14286,2.07946 0.90026,0.11412 1.72443,0.1268 1.72443,0.76078 0,0.36771 -0.35503,0.76078 -1.05241,0.76078 -0.83686,0 -1.11581,-0.30431 -1.15385,-0.82418 h -1.76247 c 0,1.44548 1.06509,2.34574 2.84024,2.34574 1.61032,0 2.89096,-0.71006 2.89096,-2.34574 0,-1.33136 -1.00169,-1.92731 -2.00339,-2.04142 -1.00169,-0.11412 -1.86391,0 -1.86391,-0.82418 0,-0.51987 0.40575,-0.78614 1.07777,-0.78614 0.5579,0 1.00169,0.25359 1.00169,0.82418 z"
         data-paper-data="{&quot;glyphName&quot;:&quot;s&quot;,&quot;glyphIndex&quot;:14,&quot;word&quot;:3}"
         id="element-id-91444"
         style="fill:#999999;fill-opacity:1" />
      <path
         d="m 445.90377,286.90032 c 0,2.21894 0.82418,2.97972 3.03044,2.73881 v -1.52156 c -1.16653,0.13948 -1.29332,-0.41843 -1.29332,-1.24261 v -3.15723 h 1.26797 v -1.58496 h -1.26797 v -1.45816 l -1.73711,0.19019 z"
         data-paper-data="{&quot;glyphName&quot;:&quot;t&quot;,&quot;glyphIndex&quot;:15,&quot;word&quot;:3}"
         id="element-id-5594"
         style="fill:#999999;fill-opacity:1" />
      <path
         d="m 456.48282,282.12009 c -0.92561,-0.15216 -1.77515,0.30431 -2.07946,0.82418 l -0.0761,-0.78614 h -1.59764 v 7.49368 h 1.73711 v -4.28572 c 0,-1.11581 0.88758,-1.5596 2.01606,-1.40744 z"
         data-paper-data="{&quot;glyphName&quot;:&quot;r&quot;,&quot;glyphIndex&quot;:16,&quot;word&quot;:3}"
         id="element-id-51566"
         style="fill:#999999;fill-opacity:1" />
      <path
         d="m 464.1836,282.15813 -0.65934,2.2443 c -0.25359,1.02705 -0.44379,2.1809 -0.58326,3.14455 -0.1268,-0.95097 -0.32967,-2.13018 -0.58326,-3.14455 l -0.67202,-2.2443 h -1.81319 l 2.2443,7.43028 -0.29163,1.05241 c -0.17752,0.65934 -0.64666,0.46915 -1.09045,0.36771 l -0.26627,1.28064 c 1.4328,0.57058 2.43449,0.39307 2.91632,-1.29332 l 0.40575,-1.44548 h -0.0127 l 2.21894,-7.39224 z"
         data-paper-data="{&quot;glyphName&quot;:&quot;y&quot;,&quot;glyphIndex&quot;:17,&quot;lastGlyphOfWord&quot;:true,&quot;word&quot;:3}"
         id="element-id-85178"
         style="fill:#999999;fill-opacity:1" />
    </g>
    <g
       data-paper-data="{&quot;isPrimaryText&quot;:true}"
       fill-rule="nonzero"
       id="element-id-4915"
       style="mix-blend-mode:normal;fill:#666666"
       transform="matrix(0.09911921,0,0,0.06597351,22.118844,74.325465)">
      <path
         d="m 319.79207,177.41767 c -28.81873,0 -43.56377,16.15167 -43.56377,42.55962 0,26.40795 14.74504,42.67766 43.56377,42.67766 28.81873,0 43.41622,-16.26889 43.41622,-42.67766 -8.2e-4,-26.40877 -14.59749,-42.55962 -43.41622,-42.55962 z m 13.40891,81.08132 c -14.68028,4.99371 -31.31722,-1.1394 -41.17512,-29.4163 -9.8579,-28.27608 -0.28444,-42.40305 14.35731,-47.50742 14.6811,-4.99289 31.27788,1.02874 41.13495,29.30482 9.8579,28.27526 0.32461,42.51453 -14.31715,47.6189 z"
         data-paper-data="{&quot;glyphName&quot;:&quot;O&quot;,&quot;glyphIndex&quot;:0,&quot;firstGlyphOfWord&quot;:true,&quot;word&quot;:1}"
         fill="#ffffff"
         id="element-id-32462"
         style="fill:#666666" />
      <path
         d="m 412.75984,218.29113 v -0.98694 c 13.45891,-1.41565 22.79136,-8.64308 22.79136,-18.54606 0,-13.20479 -11.38093,-20.1609 -33.4698,-20.1609 h -13.63433 v 0.002 H 376.5112 v 82.87814 h 28.81873 c 22.38315,0 36.24945,-8.48897 36.24945,-23.69715 -8.2e-4,-11.43421 -12.14326,-18.7805 -28.81955,-19.48873 z m -13.16545,-37.57001 c 12.43508,0 22.8512,5.06912 22.8512,17.91898 0,13.67613 -11.58668,18.98051 -23.58239,18.98051 h -10.41694 v -36.89948 z m 1.05415,78.63529 h -12.20146 v -39.72996 h 12.34819 c 18.87149,0 27.5326,7.19054 27.5326,19.68874 -8.2e-4,12.96708 -9.68576,20.04122 -27.67933,20.04122 z"
         data-paper-data="{&quot;glyphName&quot;:&quot;B&quot;,&quot;glyphIndex&quot;:1,&quot;word&quot;:1}"
         fill="#ffffff"
         id="element-id-537"
         style="fill:#666666" />
      <path
         d="m 465.99679,261.47701 v -82.87895 h -11.93505 v 82.87895 z"
         data-paper-data="{&quot;glyphName&quot;:&quot;I&quot;,&quot;glyphIndex&quot;:2,&quot;lastGlyphOfWord&quot;:true,&quot;word&quot;:1}"
         fill="#ffffff"
         id="element-id-41173"
         style="fill:#666666" />
    </g>
  </g>
</svg>
